<svg width="12" height="12" viewBox="0 0 12 12" fill="none" xmlns="http://www.w3.org/2000/svg">
<g opacity="0.48">
<path fill-rule="evenodd" clip-rule="evenodd" d="M2.16749 4.74799C2.08761 4.66807 2.03322 4.56625 2.01118 4.45542C1.98915 4.34459 2.00047 4.22972 2.0437 4.12532C2.08694 4.02092 2.16016 3.93168 2.2541 3.86888C2.34804 3.80608 2.45849 3.77254 2.57149 3.77249H9.42849C9.54149 3.77254 9.65194 3.80608 9.74588 3.86888C9.83982 3.93168 9.91304 4.02092 9.95628 4.12532C9.99951 4.22972 10.0108 4.34459 9.9888 4.45542C9.96677 4.56625 9.91237 4.66807 9.83249 4.74799L6.60599 7.97449C6.27099 8.30949 5.72849 8.30949 5.39399 7.97449L2.16749 4.74799Z" fill="white"/>
</g>
</svg>
