<svg width="24" height="24" viewBox="0 0 24 24" fill="none" xmlns="http://www.w3.org/2000/svg">
<path fill-rule="evenodd" clip-rule="evenodd" d="M1.45898 13.111C1.31294 12.9652 1.19708 12.792 1.11803 12.6014C1.03898 12.4107 0.998291 12.2064 0.998291 12C0.998291 11.7936 1.03898 11.5893 1.11803 11.3986C1.19708 11.208 1.31294 11.0348 1.45898 10.889L6.95898 5.38901C7.25599 5.10683 7.65149 4.95185 8.06114 4.9571C8.47079 4.96235 8.86219 5.12742 9.15188 5.41711C9.44157 5.7068 9.60663 6.09819 9.61188 6.50784C9.61713 6.91749 9.46215 7.31299 9.17998 7.61001L6.36398 10.43H21.427C21.8436 10.43 22.2432 10.5955 22.5378 10.8901C22.8325 11.1848 22.998 11.5844 22.998 12.001C22.998 12.4177 22.8325 12.8173 22.5378 13.1119C22.2432 13.4065 21.8436 13.572 21.427 13.572H6.36398L9.17998 16.39C9.44902 16.6893 9.59303 17.0804 9.58233 17.4827C9.57163 17.885 9.40703 18.2679 9.12245 18.5525C8.83788 18.8371 8.45499 19.0017 8.05268 19.0124C7.65037 19.0231 7.25928 18.8791 6.95998 18.61L1.45898 13.111Z" fill="#B0B2B4"/>
</svg>
