<svg width="20" height="20" viewBox="0 0 20 20" fill="none" xmlns="http://www.w3.org/2000/svg">
<path fill-rule="evenodd" clip-rule="evenodd" d="M2.79752 4.10751C2.79752 3.58658 3.00445 3.08698 3.37281 2.71863C3.74116 2.35028 4.24075 2.14334 4.76168 2.14334H13.9283C14.4493 2.14334 14.9489 2.35028 15.3172 2.71863C15.6856 3.08698 15.8925 3.58658 15.8925 4.10751V15.8933C15.8925 16.4143 15.6856 16.9139 15.3172 17.2822C14.9489 17.6506 14.4493 17.8575 13.9283 17.8575H4.76168C4.24075 17.8575 3.74116 17.6506 3.37281 17.2822C3.00445 16.9139 2.79752 16.4143 2.79752 15.8933V14.9108H1.81668C1.56117 14.9034 1.31862 14.7967 1.14052 14.6133C0.962418 14.4299 0.862793 14.1844 0.862793 13.9288C0.862793 13.6731 0.962418 13.4276 1.14052 13.2442C1.31862 13.0609 1.56117 12.9541 1.81668 12.9467H2.79835V10.9825H1.81668C1.56117 10.9751 1.31862 10.8683 1.14052 10.685C0.962418 10.5016 0.862793 10.256 0.862793 10.0004C0.862793 9.7448 0.962418 9.49925 1.14052 9.31588C1.31862 9.13252 1.56117 9.02578 1.81668 9.01834H2.79835V7.05334H1.81668C1.56117 7.0459 1.31862 6.93916 1.14052 6.7558C0.962418 6.57244 0.862793 6.32688 0.862793 6.07126C0.862793 5.81564 0.962418 5.57008 1.14052 5.38672C1.31862 5.20335 1.56117 5.09662 1.81668 5.08917H2.79835L2.79752 4.10751ZM19.1667 4.76167C19.1592 4.50616 19.0525 4.26361 18.8691 4.08551C18.6858 3.90741 18.4402 3.80779 18.1846 3.80779C17.929 3.80779 17.6834 3.90741 17.5001 4.08551C17.3167 4.26361 17.21 4.50616 17.2025 4.76167V6.07167C17.1987 6.20305 17.2213 6.33386 17.2689 6.45636C17.3165 6.57885 17.3882 6.69055 17.4798 6.78483C17.5714 6.87911 17.681 6.95406 17.802 7.00524C17.9231 7.05641 18.0532 7.08279 18.1846 7.08279C18.316 7.08279 18.4461 7.05641 18.5672 7.00524C18.6882 6.95406 18.7978 6.87911 18.8894 6.78483C18.9809 6.69055 19.0527 6.57885 19.1003 6.45636C19.1479 6.33386 19.1705 6.20305 19.1667 6.07167V4.76167ZM18.1842 8.36334C18.7267 8.36334 19.1667 8.80251 19.1667 9.34501V10.655C19.1592 10.9105 19.0525 11.1531 18.8691 11.3312C18.6858 11.5093 18.4402 11.6089 18.1846 11.6089C17.929 11.6089 17.6834 11.5093 17.5001 11.3312C17.3167 11.1531 17.21 10.9105 17.2025 10.655V9.34501C17.2025 8.80334 17.6417 8.36334 18.1842 8.36334ZM7.70835 5.90751C7.4912 5.90751 7.28295 5.99377 7.12941 6.14731C6.97586 6.30086 6.8896 6.50911 6.8896 6.72626C6.8896 6.9434 6.97586 7.15166 7.12941 7.3052C7.28295 7.45875 7.4912 7.54501 7.70835 7.54501H10.9825C11.1997 7.54501 11.4079 7.45875 11.5615 7.3052C11.715 7.15166 11.8013 6.9434 11.8013 6.72626C11.8013 6.50911 11.715 6.30086 11.5615 6.14731C11.4079 5.99377 11.1997 5.90751 10.9825 5.90751H7.70835Z" fill="#48FF91"/>
</svg>
