<svg class="text-utility-1-opacity-1" fill="none" width="24" height="24" viewBox="0 0 24 24"
     xmlns="http://www.w3.org/2000/svg">
  <g clip-path="url(#clip0_14006_7877)" opacity="0.8">
    <path
        d="M8.77002 23.31C7.39002 23.31 6.27002 22.19 6.27002 20.81C6.27002 19.43 7.39002 18.31 8.77002 18.31C10.15 18.31 11.27 19.43 11.27 20.81C11.27 22.19 10.15 23.31 8.77002 23.31ZM8.77002 20.06C8.36002 20.06 8.02002 20.4 8.02002 20.81C8.02002 21.22 8.36002 21.56 8.77002 21.56C9.18002 21.56 9.52002 21.22 9.52002 20.81C9.52002 20.4 9.18002 20.06 8.77002 20.06Z"
        fill="currentColor"></path>
    <path
        d="M17.77 23.31C16.39 23.31 15.27 22.19 15.27 20.81C15.27 19.43 16.39 18.31 17.77 18.31C19.15 18.31 20.27 19.43 20.27 20.81C20.27 22.19 19.15 23.31 17.77 23.31ZM17.77 20.06C17.36 20.06 17.02 20.4 17.02 20.81C17.02 21.22 17.36 21.56 17.77 21.56C18.18 21.56 18.52 21.22 18.52 20.81C18.52 20.4 18.18 20.06 17.77 20.06Z"
        fill="currentColor"></path>
    <path
        d="M12.4898 13.5C12.2398 13.5 11.9998 13.41 11.8098 13.23L9.77981 11.36C9.36981 10.99 9.34981 10.35 9.71981 9.94998C10.0998 9.54998 10.7298 9.51998 11.1298 9.88998L12.3798 11.04L15.2898 7.48998C15.6398 7.05998 16.2698 6.99998 16.6998 7.34998C17.1298 7.69998 17.1898 8.32998 16.8398 8.75998L13.2498 13.13C13.0798 13.34 12.8198 13.47 12.5498 13.49C12.5298 13.49 12.4998 13.49 12.4798 13.49L12.4898 13.5Z"
        fill="currentColor"></path>
    <path
        d="M21.0602 3.81H5.48018C5.39018 3.81 5.30018 3.83 5.21018 3.84L4.76018 1.59C4.65018 1.06 4.19018 0.710002 3.66018 0.710002C3.63018 0.710002 3.61018 0.690002 3.57018 0.690002H2.05018C1.43018 0.690002 0.930176 1.19 0.930176 1.81C0.930176 2.43 1.43018 2.93 2.05018 2.93H2.73018L4.48018 11.67L5.08018 15.13C5.18018 16.08 6.04018 16.8 7.07018 16.8H19.4502C20.4802 16.8 21.3402 16.08 21.4402 15.13L23.0402 5.84C23.1602 4.75 22.2302 3.8 21.0502 3.8L21.0602 3.81ZM19.2702 14.56H7.37018L6.71018 11.26L5.81018 6.06H20.7302L19.2702 14.56Z"
        fill="currentColor"></path>
  </g>
  <defs>
    <clipPath id="clip0_14006_7877">
      <rect width="24" height="24" fill="currentColor"></rect>
    </clipPath>
  </defs>
</svg>