<svg width="16" height="16" viewBox="0 0 16 16" fill="none" xmlns="http://www.w3.org/2000/svg">
<path fill-rule="evenodd" clip-rule="evenodd" d="M13.11 9.66933C13.2165 9.7759 13.289 9.91165 13.3184 10.0594C13.3478 10.2072 13.3327 10.3604 13.2751 10.4996C13.2174 10.6388 13.1198 10.7578 12.9945 10.8415C12.8693 10.9252 12.722 10.9699 12.5713 10.97L3.42867 10.97C3.278 10.9699 3.13074 10.9252 3.00548 10.8415C2.88023 10.7578 2.7826 10.6388 2.72495 10.4996C2.6673 10.3604 2.65222 10.2072 2.68159 10.0594C2.71097 9.91165 2.78349 9.7759 2.89 9.66933L7.192 5.36734C7.63867 4.92067 8.362 4.92067 8.808 5.36734L13.11 9.66933Z" fill="#29aa74"/>
</svg>
