<svg width="16" height="16" viewBox="0 0 16 16" fill="none" xmlns="http://www.w3.org/2000/svg">
<path fill-rule="evenodd" clip-rule="evenodd" d="M2.89 6.33067C2.78349 6.2241 2.71096 6.08835 2.68159 5.94058C2.65221 5.7928 2.6673 5.63963 2.72495 5.50043C2.7826 5.36123 2.88022 5.24225 3.00548 5.15851C3.13073 5.07478 3.278 5.03006 3.42866 5.03H12.5713C12.722 5.03006 12.8693 5.07478 12.9945 5.15851C13.1198 5.24225 13.2174 5.36123 13.275 5.50043C13.3327 5.63963 13.3478 5.7928 13.3184 5.94058C13.289 6.08835 13.2165 6.2241 13.11 6.33067L8.808 10.6327C8.36133 11.0793 7.638 11.0793 7.192 10.6327L2.89 6.33067Z" fill="#FD5A59"/>
</svg>
