<svg width="15" height="15" viewBox="0 0 15 15" fill="none" xmlns="http://www.w3.org/2000/svg">
<path fill-rule="evenodd" clip-rule="evenodd" d="M7.5 13.75C10.9519 13.75 13.75 10.9519 13.75 7.5C13.75 4.04813 10.9519 1.25 7.5 1.25C4.04813 1.25 1.25 4.04813 1.25 7.5C1.25 10.9519 4.04813 13.75 7.5 13.75ZM10.6275 5.90938C10.6824 5.84072 10.7233 5.76191 10.7478 5.67745C10.7723 5.59299 10.7799 5.50454 10.7703 5.41713C10.7606 5.32973 10.7337 5.24509 10.6913 5.16805C10.6489 5.09101 10.5918 5.02307 10.5231 4.96812C10.4545 4.91317 10.3757 4.87229 10.2912 4.84779C10.2067 4.8233 10.1183 4.81568 10.0309 4.82537C9.94348 4.83507 9.85884 4.86188 9.7818 4.90428C9.70476 4.94668 9.63683 5.00384 9.58187 5.0725L6.41563 9.03L5.14938 8.08C5.07899 8.02723 4.99891 7.98883 4.91369 7.967C4.82847 7.94518 4.73979 7.94036 4.6527 7.9528C4.56562 7.96525 4.48184 7.99473 4.40615 8.03956C4.33046 8.08439 4.26434 8.14368 4.21156 8.21406C4.15879 8.28444 4.12039 8.36453 4.09857 8.44975C4.07674 8.53497 4.07192 8.62365 4.08437 8.71073C4.09682 8.79782 4.12629 8.8816 4.17112 8.95729C4.21595 9.03298 4.27524 9.0991 4.34562 9.15187L6.13125 10.4912C6.27039 10.5959 6.44487 10.6422 6.61761 10.6203C6.79034 10.5984 6.94771 10.5099 7.05625 10.3737L10.6275 5.90938Z" fill="#29AA74"/>
</svg>
