<svg width="15" height="15" viewBox="0 0 15 15" fill="none" xmlns="http://www.w3.org/2000/svg">
<path d="M5.76875 1.75C6.02709 1.75649 6.27267 1.86367 6.45309 2.04869C6.63351 2.2337 6.73449 2.48189 6.73449 2.74031C6.73449 2.99873 6.63351 3.24692 6.45309 3.43194C6.27267 3.61695 6.02709 3.72413 5.76875 3.73062H3.73125V11.2688H11.2688V9.23125C11.2688 8.96852 11.3731 8.71655 11.5589 8.53077C11.7447 8.34499 11.9966 8.24062 12.2594 8.24062C12.5221 8.24062 12.7741 8.34499 12.9599 8.53077C13.1456 8.71655 13.25 8.96852 13.25 9.23125V11.3937C13.25 11.8861 13.0544 12.3582 12.7063 12.7063C12.3582 13.0544 11.8861 13.25 11.3937 13.25H3.60625C3.11394 13.25 2.6418 13.0544 2.29368 12.7063C1.94557 12.3582 1.75 11.8861 1.75 11.3937V3.60625C1.75 3.11394 1.94557 2.6418 2.29368 2.29368C2.6418 1.94557 3.11394 1.75 3.60625 1.75H5.76875ZM11.3981 9.1425C11.3948 9.17196 11.3935 9.20161 11.3944 9.23125L11.3988 9.1425C11.4021 9.11333 11.4062 9.08458 11.4112 9.05625L11.3981 9.1425ZM11.4619 8.89375C11.4505 8.91953 11.4409 8.94605 11.4331 8.97312L11.4619 8.89375ZM11.4619 8.89375C11.4723 8.86792 11.4844 8.84292 11.4981 8.81875L11.4619 8.89375ZM11.6475 8.61875C11.6274 8.6381 11.6086 8.65877 11.5912 8.68062L11.6475 8.61875ZM11.6475 8.61875C11.6671 8.59958 11.6875 8.58104 11.7087 8.56312L11.6475 8.61875ZM12.26 1.75C12.8062 1.75 13.25 2.19375 13.25 2.74062V6.20187C13.2435 6.46021 13.1363 6.70579 12.9513 6.88621C12.7663 7.06664 12.5181 7.16762 12.2597 7.16762C12.0013 7.16762 11.7531 7.06664 11.5681 6.88621C11.383 6.70579 11.2759 6.46021 11.2694 6.20187V5.13062L8.20062 8.2C7.8375 8.5625 7.26375 8.58562 6.875 8.26875L6.8 8.2C6.61436 8.01434 6.51007 7.76255 6.51007 7.5C6.51007 7.23745 6.61436 6.98566 6.8 6.8L9.86875 3.73062H8.79812C8.66803 3.73062 8.53922 3.705 8.41903 3.65522C8.29884 3.60543 8.18964 3.53246 8.09765 3.44048C8.00566 3.34849 7.93269 3.23928 7.88291 3.1191C7.83312 2.99891 7.8075 2.87009 7.8075 2.74C7.8075 2.60991 7.83312 2.48109 7.88291 2.3609C7.93269 2.24072 8.00566 2.13151 8.09765 2.03952C8.18964 1.94753 8.29884 1.87456 8.41903 1.82478C8.53922 1.775 8.66803 1.74937 8.79812 1.74937L12.26 1.75ZM12.0019 8.40437C11.9748 8.41216 11.9483 8.42176 11.9225 8.43312L12.0025 8.40437C12.0292 8.39604 12.0567 8.38896 12.085 8.38312L12.0019 8.40437ZM7.75625 8.325C7.78958 8.31542 7.82229 8.30375 7.85437 8.29L7.86438 8.285C7.82925 8.30069 7.79313 8.31406 7.75625 8.325ZM7.97625 8.22312L7.92125 8.25625L7.985 8.2175C8.00583 8.20292 8.02625 8.1875 8.04625 8.17125L7.97625 8.22312ZM6.73312 7.90312C6.75979 7.95312 6.79167 8.00083 6.82875 8.04625L6.7775 7.97625C6.76125 7.9527 6.74663 7.92806 6.73375 7.9025M12.0025 7.0275C12.03 7.03583 12.0577 7.04292 12.0856 7.04875L12.0025 7.0275C11.9752 7.01974 11.9491 7.01014 11.9231 6.99875L12.0025 7.0275ZM6.7775 7.0225L6.76875 7.0375C6.78708 7.00833 6.80729 6.98021 6.82937 6.95312L6.7775 7.0225ZM11.6481 6.81312C11.6677 6.83271 11.6881 6.85146 11.7094 6.86937L11.6481 6.81312ZM11.6481 6.81312C11.628 6.79398 11.6092 6.77352 11.5919 6.75187L11.6481 6.81312ZM11.4625 6.53813C11.4733 6.56396 11.4856 6.58917 11.4994 6.61375L11.4625 6.53813ZM11.4625 6.53813C11.4509 6.51236 11.4411 6.48584 11.4331 6.45875L11.4625 6.53813ZM11.395 6.20062C11.395 6.26104 11.4008 6.31937 11.4125 6.37562L11.4 6.29C11.396 6.26059 11.3941 6.23093 11.3944 6.20125M5.8575 3.60125C5.88592 3.59508 5.91474 3.5909 5.94375 3.58875L5.8575 3.60125ZM6.10625 3.5375C6.08049 3.54907 6.05397 3.55889 6.02687 3.56687L6.10625 3.5375C6.13167 3.52667 6.15667 3.51521 6.18125 3.50187L6.10625 3.5375ZM8.46125 3.53812C8.48708 3.54937 8.51354 3.55896 8.54062 3.56687L8.46125 3.53812ZM8.46125 3.53812C8.43527 3.52795 8.41001 3.51605 8.38562 3.5025L8.46125 3.53812ZM6.38125 3.35187C6.3619 3.37198 6.34123 3.39078 6.31938 3.40812L6.38125 3.35187C6.40042 3.33229 6.41896 3.3125 6.43687 3.29125L6.38125 3.35187ZM8.18625 3.3525C8.20542 3.37167 8.22583 3.39042 8.2475 3.40875L8.18625 3.3525ZM8.18625 3.3525C8.16616 3.33335 8.14737 3.31289 8.13 3.29125L8.18625 3.3525Z" fill="#B0B2B4"/>
</svg>
