<svg width="24" height="24" viewBox="0 0 24 24" fill="none" xmlns="http://www.w3.org/2000/svg">
<path fill-rule="evenodd" clip-rule="evenodd" d="M7.89784 4.3613C8.53455 3.84231 9.47374 3.87891 10.0672 4.47213L16.0703 10.4752L16.2183 10.6387C16.862 11.4278 16.8618 12.5676 16.2183 13.3568L16.0703 13.5203L10.0672 19.5234C9.47365 20.1167 8.53456 20.1534 7.89784 19.6342L7.77429 19.5234C7.14124 18.8903 7.1414 17.8636 7.77429 17.2304L13.007 11.9977L7.77429 6.76507C7.14142 6.13189 7.14125 5.10521 7.77429 4.47213L7.89784 4.3613ZM9.12334 19.4207C9.08994 19.4272 9.05628 19.432 9.0225 19.4352L9.12334 19.4207C9.15666 19.4142 9.19058 19.4058 9.22327 19.3962L9.12334 19.4207ZM9.59119 4.79463C9.61901 4.81732 9.64611 4.84139 9.67205 4.86731C9.62011 4.81537 9.5648 4.76999 9.5058 4.73104L9.59119 4.79463ZM9.12334 4.5757C9.15697 4.5822 9.19028 4.59046 9.22327 4.60023L9.12334 4.5757C9.08965 4.56916 9.05658 4.56442 9.0225 4.56116L9.12334 4.5757Z" fill="#B2B4B7"/>
</svg>
