<svg width="24" height="24" viewBox="0 0 24 24" fill="none" xmlns="http://www.w3.org/2000/svg">
<path d="M21.25 11.25H13.75V3.75C13.75 3.41848 13.6183 3.10054 13.3839 2.86612C13.1495 2.6317 12.8315 2.5 12.5 2.5C12.1685 2.5 11.8505 2.6317 11.6161 2.86612C11.3817 3.10054 11.25 3.41848 11.25 3.75V11.25H3.75C3.41848 11.25 3.10054 11.3817 2.86612 11.6161C2.6317 11.8505 2.5 12.1685 2.5 12.5C2.5 12.8315 2.6317 13.1495 2.86612 13.3839C3.10054 13.6183 3.41848 13.75 3.75 13.75H11.25V21.25C11.25 21.5815 11.3817 21.8995 11.6161 22.1339C11.8505 22.3683 12.1685 22.5 12.5 22.5C12.8315 22.5 13.1495 22.3683 13.3839 22.1339C13.6183 21.8995 13.75 21.5815 13.75 21.25V13.75H21.25C21.5815 13.75 21.8995 13.6183 22.1339 13.3839C22.3683 13.1495 22.5 12.8315 22.5 12.5C22.5 12.1685 22.3683 11.8505 22.1339 11.6161C21.8995 11.3817 21.5815 11.25 21.25 11.25Z" fill="#242426"/>
</svg>
