<svg width="20" height="20" viewBox="0 0 20 20" fill="none" xmlns="http://www.w3.org/2000/svg">
<path fill-rule="evenodd" clip-rule="evenodd" d="M3.58917 7.2351C4.16817 6.92357 4.89007 7.14037 5.20162 7.71935C5.43474 8.15258 5.73874 8.5525 6.10108 8.905C6.1324 8.93175 6.16256 8.96033 6.19146 8.99075C7.15114 9.88017 8.49266 10.4459 10.0006 10.4459C11.5037 10.4459 12.8414 9.88383 13.8004 8.99942C13.8346 8.96267 13.8706 8.92858 13.9082 8.89717C14.267 8.54658 14.5682 8.1494 14.7996 7.71935C15.1112 7.14037 15.8331 6.92357 16.4121 7.2351C16.991 7.54665 17.2078 8.26857 16.8962 8.84758C16.7401 9.13775 16.5642 9.41617 16.3701 9.68142L17.9074 10.9699C18.4114 11.3923 18.4776 12.1431 18.0553 12.647C17.6329 13.1509 16.8821 13.2171 16.3782 12.7948L14.6643 11.3584C14.2404 11.6598 13.7829 11.9205 13.2987 12.1352L14.0329 13.9842C14.2756 14.5953 13.9768 15.2873 13.3658 15.5301C12.7547 15.7728 12.0627 15.474 11.8201 14.8629L10.9882 12.7681C10.6644 12.8069 10.3347 12.8269 10.0006 12.8269C9.66474 12.8269 9.33341 12.8067 9.00791 12.7675L8.17586 14.8629C7.93321 15.474 7.24114 15.7728 6.63007 15.5301C6.01901 15.2873 5.72034 14.5953 5.96298 13.9842L6.69801 12.1331C6.21515 11.9188 5.75898 11.6586 5.33623 11.358L3.62183 12.7948C3.11792 13.2171 2.36706 13.1509 1.94474 12.647C1.52242 12.1431 1.58857 11.3923 2.09249 10.9699L3.63069 9.68083C3.43681 9.41575 3.26097 9.1375 3.10494 8.84758C2.7934 8.26857 3.0102 7.54665 3.58917 7.2351Z" fill="#6A6A6B"/>
</svg>
