<svg width="24" height="24" viewBox="0 0 24 24" fill="none" xmlns="http://www.w3.org/2000/svg">
<path d="M23.109 12C23.109 17.58 18.569 22.12 12.989 22.12C10.049 22.12 7.259 20.85 5.339 18.63C5.14622 18.403 5.04981 18.1097 5.07037 17.8126C5.09092 17.5155 5.2268 17.2383 5.449 17.04C5.659 16.87 5.919 16.77 6.189 16.77C6.519 16.77 6.829 16.91 7.039 17.16C7.77895 18.012 8.69286 18.6957 9.7192 19.1649C10.7455 19.634 11.8605 19.8779 12.989 19.88C17.329 19.88 20.859 16.34 20.859 12C20.859 7.66 17.329 4.12 12.989 4.12C9.099 4.12 5.829 6.91 5.219 10.76L5.189 10.9H6.019C6.469 10.9 6.879 11.17 7.059 11.6C7.229 12.02 7.129 12.5 6.809 12.82L4.809 14.82C4.599 15.04 4.319 15.15 4.019 15.15C3.719 15.15 3.429 15.04 3.219 14.82L1.219 12.82C0.898995 12.5 0.798995 12.02 0.978995 11.6C1.149 11.17 1.559 10.9 2.019 10.9H2.929V10.79C3.549 5.71 7.869 1.88 12.989 1.88C18.569 1.88 23.109 6.42 23.109 12Z" fill="#86878A"/>
<path d="M16.919 14.62C16.709 14.94 16.359 15.12 15.979 15.12C15.759 15.12 15.549 15.06 15.359 14.94L11.859 12.6V7C11.859 6.38 12.359 5.88 12.989 5.88C13.619 5.88 14.109 6.38 14.109 7V11.4L14.169 11.44L16.609 13.06C16.859 13.23 17.029 13.48 17.089 13.78C17.149 14.07 17.089 14.37 16.919 14.62Z" fill="#86878A"/>
</svg>
