<svg width="16" height="16" viewBox="0 0 16 16" fill="none" xmlns="http://www.w3.org/2000/svg">
<path d="M7.99998 1.33333C6.23187 1.33333 4.53618 2.03571 3.28593 3.28595C2.03569 4.53619 1.33331 6.23188 1.33331 8C1.33331 9.76811 2.03569 11.4638 3.28593 12.714C4.53618 13.9643 6.23187 14.6667 7.99998 14.6667C9.76809 14.6667 11.4638 13.9643 12.714 12.714C13.9643 11.4638 14.6666 9.76811 14.6666 8C14.6666 6.23188 13.9643 4.53619 12.714 3.28595C11.4638 2.03571 9.76809 1.33333 7.99998 1.33333ZM8.13865 4.11133C8.35966 4.11133 8.57162 4.19913 8.7279 4.35541C8.88418 4.51169 8.97198 4.72365 8.97198 4.94466C8.97198 5.16568 8.88418 5.37764 8.7279 5.53392C8.57162 5.6902 8.35966 5.778 8.13865 5.778C7.91763 5.778 7.70567 5.6902 7.54939 5.53392C7.39311 5.37764 7.30531 5.16568 7.30531 4.94466C7.30531 4.72365 7.39311 4.51169 7.54939 4.35541C7.70567 4.19913 7.91763 4.11133 8.13865 4.11133ZM9.38865 11.6113H7.16665C7.01927 11.6113 6.87794 11.5528 6.77373 11.4486C6.66952 11.3444 6.61098 11.203 6.61098 11.0557C6.61098 10.9083 6.66952 10.767 6.77373 10.6627C6.87794 10.5585 7.01927 10.5 7.16665 10.5H7.58331C7.61998 10.4996 7.65505 10.4849 7.68098 10.459C7.70691 10.4331 7.72163 10.398 7.72198 10.3613V7.86133C7.72181 7.82454 7.70716 7.7893 7.68121 7.76323C7.65526 7.73716 7.6201 7.72235 7.58331 7.722H7.16665C7.02407 7.71501 6.88964 7.65345 6.79121 7.55007C6.69277 7.44669 6.63787 7.30941 6.63787 7.16666C6.63787 7.02391 6.69277 6.88663 6.79121 6.78325C6.88964 6.67988 7.02407 6.61832 7.16665 6.61133H7.72198C8.01661 6.61133 8.29918 6.72832 8.50758 6.93659C8.71597 7.14487 8.83314 7.42737 8.83331 7.722V10.3613C8.83366 10.398 8.84838 10.4331 8.87431 10.459C8.90024 10.4849 8.93531 10.4996 8.97198 10.5H9.38865C9.53602 10.5 9.67735 10.5585 9.78156 10.6627C9.88577 10.767 9.94431 10.9083 9.94431 11.0557C9.94431 11.203 9.88577 11.3444 9.78156 11.4486C9.67735 11.5528 9.53602 11.6113 9.38865 11.6113Z" fill="#B0B2B4"/>
</svg>
