<svg width="22" height="22" viewBox="0 0 22 22" fill="none" xmlns="http://www.w3.org/2000/svg">
<path d="M22 11C22 17.0751 17.0751 22 11 22C4.92487 22 0 17.0751 0 11C0 4.92487 4.92487 0 11 0C17.0751 0 22 4.92487 22 11ZM2.486 11C2.486 15.7022 6.29785 19.514 11 19.514C15.7022 19.514 19.514 15.7022 19.514 11C19.514 6.29785 15.7022 2.486 11 2.486C6.29785 2.486 2.486 6.29785 2.486 11Z" fill="#2E3A30"/>
<path d="M22 11C22 12.4445 21.7155 13.8749 21.1627 15.2095C20.6099 16.5441 19.7996 17.7567 18.7782 18.7782C17.7567 19.7996 16.5441 20.6099 15.2095 21.1627C13.8749 21.7155 12.4445 22 11 22V19.514C12.1181 19.514 13.2252 19.2938 14.2582 18.8659C15.2911 18.438 16.2297 17.8109 17.0203 17.0203C17.8109 16.2297 18.438 15.2911 18.8659 14.2582C19.2938 13.2252 19.514 12.1181 19.514 11H22Z" fill="#6AEABF"/>
</svg>
