<svg class="text-utility-1-opacity-1" fill="none" width="24" height="24" viewBox="0 0 24 24"
     xmlns="http://www.w3.org/2000/svg">
  <path opacity="0.8"
      d="M19.9477 12.465C19.4577 11.975 18.6677 11.975 18.1777 12.465L13.1177 17.525V3.44502C13.1177 2.82502 12.6177 2.32501 11.9977 2.32501C11.3777 2.32501 10.8777 2.82502 10.8777 3.44502V17.525L5.81768 12.465C5.32768 11.975 4.53768 11.975 4.04768 12.465C3.55768 12.955 3.55768 13.745 4.04768 14.235L11.1177 21.305C11.3477 21.535 11.6677 21.675 11.9977 21.675C12.3277 21.675 12.6477 21.545 12.8777 21.305L19.9477 14.235C20.4377 13.745 20.4377 12.955 19.9477 12.465Z"
      fill="currentColor"></path>
</svg>