<svg width="36" height="36" viewBox="0 0 36 36" fill="none" xmlns="http://www.w3.org/2000/svg">
<rect width="36" height="36" rx="18" fill="#242426"/>
<path d="M24.6234 18.3875C24.5266 18.2905 24.4117 18.2135 24.2851 18.161C24.1586 18.1085 24.0229 18.0815 23.8859 18.0815C23.7489 18.0815 23.6132 18.1085 23.4867 18.161C23.3601 18.2135 23.2452 18.2905 23.1484 18.3875L18.9317 22.6042V10.8708C18.9317 10.3542 18.5151 9.9375 17.9984 9.9375C17.4817 9.9375 17.0651 10.3542 17.0651 10.8708V22.6042L12.8484 18.3875C12.7516 18.2905 12.6367 18.2135 12.5101 18.161C12.3836 18.1085 12.2479 18.0815 12.1109 18.0815C11.9739 18.0815 11.8382 18.1085 11.7117 18.161C11.5851 18.2135 11.4702 18.2905 11.3734 18.3875C11.2764 18.4843 11.1994 18.5992 11.1469 18.7258C11.0944 18.8523 11.0674 18.988 11.0674 19.125C11.0674 19.262 11.0944 19.3977 11.1469 19.5242C11.1994 19.6508 11.2764 19.7657 11.3734 19.8625L17.2651 25.7542C17.4567 25.9458 17.7234 26.0625 17.9984 26.0625C18.2734 26.0625 18.5401 25.9542 18.7317 25.7542L24.6234 19.8625C25.0317 19.4542 25.0317 18.7958 24.6234 18.3875Z" fill="#A7A9AC"/>
</svg>
