<svg width="20" height="20" viewBox="0 0 20 20" fill="none" xmlns="http://www.w3.org/2000/svg">
<g opacity="0.4">
<path fill-rule="evenodd" clip-rule="evenodd" d="M16.525 8.60832C17.2933 8.60832 17.9167 9.23165 17.9167 9.99999C17.9167 11.3869 17.5524 12.7495 16.8602 13.9513C16.168 15.1531 15.1722 16.152 13.9726 16.848C12.7729 17.5439 11.4115 17.9125 10.0246 17.9168C8.63765 17.9211 7.27395 17.561 6.07 16.8725L5.355 17.5883C5.055 17.8883 4.61334 17.9908 4.21334 17.86L4.13417 17.8308C3.92929 17.7465 3.75413 17.6031 3.63097 17.419C3.5078 17.2348 3.4422 17.0182 3.4425 16.7967V13.5333C3.4425 12.915 3.945 12.4133 4.56334 12.4133H7.825C8.27834 12.4133 8.68667 12.6867 8.86 13.105L8.88917 13.1833C9.01167 13.5558 8.93084 13.9658 8.67417 14.2633L8.6175 14.3258L8.15334 14.7875C8.93082 15.0872 9.76959 15.1932 10.5972 15.0963C11.4248 14.9994 12.2164 14.7024 12.9035 14.2311C13.5907 13.7598 14.1528 13.1282 14.5413 12.3911C14.9298 11.6539 15.133 10.8333 15.1333 9.99999C15.1333 9.23165 15.7567 8.60832 16.525 8.60832ZM7.89667 17.3183C7.98 17.3422 8.06445 17.3644 8.15 17.385L7.8975 17.3175C7.81417 17.2936 7.73111 17.2683 7.64834 17.2417L7.89667 17.3183ZM6.92584 16.9658C7.08306 17.0353 7.2425 17.0992 7.40417 17.1575L7.16334 17.0658C7.00405 17.0018 6.84702 16.9323 6.6925 16.8575L6.92584 16.9658ZM6.02084 16.4908C6.16528 16.5797 6.31306 16.6636 6.46417 16.7425L6.24084 16.62L6.02084 16.4908ZM8.75917 15.2958C8.85917 15.3192 8.95972 15.3394 9.06084 15.3567L8.75917 15.2958ZM8.75917 15.2958C8.66006 15.2727 8.56168 15.2466 8.46417 15.2175L8.75917 15.2958ZM13.4575 14.1958C13.3908 14.2508 13.3225 14.3044 13.2525 14.3567L13.4575 14.1958ZM13.4575 14.1958C13.5242 14.1403 13.59 14.083 13.655 14.0242L13.4575 14.1958ZM14.1767 13.4792L14.195 13.4592L14.2258 13.4183L14.1767 13.4792ZM4.32 12.7542C4.31056 12.7586 4.30084 12.7622 4.29084 12.765C4.32596 12.7526 4.36187 12.7426 4.39834 12.735L4.32 12.7542ZM15.265 11.3592L15.3258 11.0958L15.3375 11.035C15.3164 11.1433 15.2922 11.2514 15.265 11.3592ZM15.8317 9.16082L15.8117 9.17915C15.8444 9.15026 15.8792 9.12332 15.9158 9.09832L15.8317 9.16082ZM16.5233 8.91249C16.4483 8.91249 16.3753 8.91999 16.3042 8.93499L16.4125 8.91832C16.4492 8.91499 16.4861 8.91304 16.5233 8.91249ZM10 2.08332C11.3784 2.08161 12.7332 2.44134 13.9292 3.12665L14.6458 2.41165L14.7067 2.35499C15.025 2.07999 15.4733 2.00582 15.865 2.16915L15.9425 2.20415C16.3175 2.39332 16.5567 2.77915 16.5575 3.20415V6.46582C16.5575 7.08499 16.055 7.58582 15.4367 7.58582H12.175C11.75 7.58582 11.365 7.34665 11.175 6.97165L11.14 6.89415C11.0547 6.68957 11.0322 6.46423 11.0754 6.24681C11.1186 6.0294 11.2255 5.82977 11.3825 5.67332L11.8458 5.21082C11.0683 4.91118 10.2294 4.80534 9.40181 4.90245C8.57418 4.99956 7.78263 5.29669 7.09553 5.76818C6.40844 6.23967 5.84646 6.87134 5.45813 7.60864C5.0698 8.34593 4.8668 9.16668 4.86667 9.99999C4.86667 10.3691 4.72005 10.7231 4.45906 10.984C4.19807 11.245 3.8441 11.3917 3.475 11.3917C3.10591 11.3917 2.75193 11.245 2.49095 10.984C2.22996 10.7231 2.08334 10.3691 2.08334 9.99999C2.08334 7.90036 2.91741 5.88672 4.40207 4.40206C5.88674 2.91739 7.90037 2.08332 10 2.08332ZM3.58667 11.0817C3.62238 11.0737 3.65856 11.0682 3.695 11.065L3.58667 11.0817ZM4.16667 10.84C4.1402 10.8623 4.11237 10.8828 4.08334 10.9017L4.16667 10.84ZM4.16667 10.84C4.19389 10.8178 4.21972 10.7942 4.24417 10.7692L4.16667 10.84ZM4.67334 8.90415L4.665 8.95082C4.685 8.84693 4.70806 8.7436 4.73417 8.64082L4.67334 8.90415ZM5.80417 6.54165C5.74902 6.60933 5.69539 6.67823 5.64334 6.74832L5.80417 6.54165ZM5.80417 6.54165C5.85972 6.47499 5.91695 6.40943 5.97584 6.34499L5.80417 6.54165ZM6.54084 5.80499C6.47401 5.86073 6.40844 5.91797 6.34417 5.97665L6.54084 5.80499ZM6.54084 5.80499C6.60851 5.74983 6.67742 5.69621 6.7475 5.64415L6.54084 5.80499ZM8.90417 4.67415C8.81593 4.69239 8.72813 4.71268 8.64084 4.73499L8.90417 4.67415ZM8.90417 4.67415C8.99296 4.65624 9.08215 4.64041 9.17167 4.62665L8.90417 4.67415ZM6.0525 3.49082C6.1574 3.42714 6.26382 3.36601 6.37167 3.30749L6.0525 3.49082ZM13.7583 3.38082L13.9783 3.50999C13.8332 3.4208 13.685 3.33658 13.5342 3.25749L13.7583 3.38082ZM12.8358 2.93499C12.9953 2.99887 13.1522 3.06832 13.3067 3.14332L13.0733 3.03499C12.9161 2.96564 12.7566 2.90171 12.595 2.84332L12.8358 2.93499ZM12.1017 2.68332C12.185 2.70721 12.2681 2.73249 12.3508 2.75915L12.1017 2.68332ZM12.1017 2.68332C12.0176 2.65962 11.9332 2.6374 11.8483 2.61665L12.1017 2.68332Z" fill="white"/>
</g>
</svg>
