<svg width="24" height="24" viewBox="0 0 24 24" fill="none" xmlns="http://www.w3.org/2000/svg">
<g opacity="0.8">
<path fill-rule="evenodd" clip-rule="evenodd" d="M12.3351 2.92082C12.0055 2.96403 11.8115 3.01967 11.5779 3.13803C11.4275 3.21428 3.69524 8.34734 3.52879 8.48147C3.19758 8.7484 2.98064 9.15751 2.92601 9.61826C2.85722 10.1986 3.14854 10.8377 3.64225 11.1897C3.95291 11.4112 4.27107 11.5251 4.64056 11.5472L4.86606 11.5606V14.0433V16.526H4.76099C4.0105 16.526 3.38705 16.9079 3.07517 17.5587C2.92117 17.88 2.91906 17.904 2.91906 19.331C2.91906 20.5959 2.9195 20.6085 2.96949 20.7811C3.12641 21.323 3.49969 21.7423 4.01662 21.9575C4.36253 22.1015 3.75871 22.092 12.5001 22.092C21.2414 22.092 20.6376 22.1015 20.9835 21.9575C21.4993 21.7428 21.874 21.3215 22.0309 20.7799C22.0805 20.6088 22.0811 20.5935 22.0811 19.331C22.0811 17.88 22.0801 17.8698 21.9045 17.5201C21.7295 17.1716 21.4567 16.8961 21.1184 16.7263C20.8915 16.6125 20.6596 16.5535 20.364 16.5344L20.1341 16.5195V14.04V11.5606L20.3596 11.5468C20.7106 11.5252 20.9775 11.4385 21.2652 11.2525C21.8265 10.8896 22.1532 10.2267 22.0747 9.60985C22.0165 9.15232 21.7991 8.7458 21.4713 8.48136C21.3052 8.34736 13.575 3.21544 13.424 3.13893C13.2628 3.05726 13.0978 2.9976 12.9401 2.96401C12.7863 2.93123 12.4427 2.90672 12.3351 2.92082ZM9.33967 7.24965L6.19031 9.34297L9.34517 9.34854C11.0804 9.35162 13.9199 9.35162 15.6553 9.34854L18.8105 9.34297L15.6627 7.25297C13.9314 6.10347 12.5091 5.16148 12.502 5.15965C12.4949 5.15782 11.0718 6.09832 9.33967 7.24965ZM7.06606 14.04V16.526H8.14406H9.22206V14.04V11.554H8.14406H7.06606V14.04ZM11.4221 14.04V16.526H12.5001H13.5781V14.04V11.554H12.5001H11.4221V14.04ZM15.7781 14.04V16.526H16.8561H17.9341V14.04V11.554H16.8561H15.7781V14.04ZM5.11319 19.3145L5.11906 19.881H12.5001H19.8811L19.8869 19.3145L19.8928 18.748H12.5001H5.10731L5.11319 19.3145Z" fill="white"/>
</g>
</svg>
