<svg width="24" height="24" viewBox="0 0 24 24" fill="none" xmlns="http://www.w3.org/2000/svg">
<g opacity="0.8">
<path d="M19.71 5.58999C19.71 5.44999 19.68 5.31999 19.63 5.18999C19.58 5.07999 19.51 4.97999 19.43 4.88999C19.41 4.86999 19.4 4.83999 19.38 4.81999C19.36 4.79999 19.33 4.78999 19.3 4.76999C19.21 4.69999 19.12 4.61999 19.01 4.57999C18.87 4.51999 18.72 4.48999 18.58 4.48999H8.58C7.96 4.48999 7.46001 4.98999 7.46001 5.60999C7.46001 6.22999 7.96 6.72999 8.58 6.72999H15.86L4.78001 17.81C4.62158 17.9672 4.51361 18.1681 4.46988 18.387C4.42615 18.6059 4.44865 18.8329 4.53451 19.0389C4.62036 19.245 4.76567 19.4208 4.95189 19.5439C5.13811 19.667 5.35679 19.7318 5.58 19.73C5.87 19.73 6.16 19.62 6.38001 19.4L17.46 8.31999V15.6C17.46 16.22 17.96 16.72 18.58 16.72C19.2 16.72 19.7 16.22 19.7 15.6V5.56999L19.71 5.58999Z" fill="white"/>
</g>
</svg>
