<svg width="36" height="36" viewBox="0 0 36 36" fill="none" xmlns="http://www.w3.org/2000/svg">
<rect width="36" height="36" rx="18" fill="#242426"/>
<path d="M24.6234 17.6125C24.5266 17.7095 24.4117 17.7865 24.2851 17.839C24.1586 17.8915 24.0229 17.9185 23.8859 17.9185C23.7489 17.9185 23.6132 17.8915 23.4867 17.839C23.3601 17.7865 23.2452 17.7095 23.1484 17.6125L18.9317 13.3958V25.1292C18.9317 25.6458 18.5151 26.0625 17.9984 26.0625C17.4817 26.0625 17.0651 25.6458 17.0651 25.1292V13.3958L12.8484 17.6125C12.7516 17.7095 12.6367 17.7865 12.5101 17.839C12.3836 17.8915 12.2479 17.9185 12.1109 17.9185C11.9739 17.9185 11.8382 17.8915 11.7117 17.839C11.5851 17.7865 11.4702 17.7095 11.3734 17.6125C11.2764 17.5157 11.1994 17.4008 11.1469 17.2742C11.0944 17.1477 11.0674 17.012 11.0674 16.875C11.0674 16.738 11.0944 16.6023 11.1469 16.4758C11.1994 16.3492 11.2764 16.2343 11.3734 16.1375L17.2651 10.2458C17.4567 10.0542 17.7234 9.9375 17.9984 9.9375C18.2734 9.9375 18.5401 10.0458 18.7317 10.2458L24.6234 16.1375C25.0317 16.5458 25.0317 17.2042 24.6234 17.6125Z" fill="#A7A9AC"/>
</svg>
