<svg width="24" height="24" viewBox="0 0 24 24" fill="none" xmlns="http://www.w3.org/2000/svg">
<path fill-rule="evenodd" clip-rule="evenodd" d="M9.83705 2.534L9.14205 4.327L6.75205 5.684L4.84505 5.394C4.52787 5.3508 4.20501 5.40283 3.91746 5.54349C3.62991 5.68415 3.39064 5.90709 3.23005 6.184L2.58405 7.315C2.41825 7.59667 2.34182 7.92201 2.36486 8.24804C2.38789 8.57407 2.5093 8.88544 2.71305 9.141L3.92505 10.643V13.357L2.74505 14.859C2.54194 15.1149 2.42094 15.4262 2.39792 15.752C2.3749 16.0779 2.45093 16.4031 2.61605 16.685L3.26205 17.815C3.42193 18.0929 3.66115 18.3168 3.94906 18.4579C4.23696 18.599 4.56044 18.6509 4.87805 18.607L6.78405 18.317L9.14205 19.673L9.83705 21.466C9.95352 21.77 10.1594 22.0315 10.4276 22.2161C10.6957 22.4007 11.0135 22.4997 11.339 22.5H12.696C13.0214 22.499 13.3389 22.3998 13.6069 22.2153C13.875 22.0308 14.081 21.7696 14.198 21.466L14.893 19.673L17.251 18.316L19.1581 18.606C19.4752 18.6492 19.7981 18.5972 20.0856 18.4565C20.3732 18.3158 20.6125 18.0929 20.7731 17.816L21.4191 16.685C21.584 16.403 21.6599 16.0777 21.6367 15.7519C21.6135 15.426 21.4923 15.1148 21.289 14.859L20.0791 13.357V10.643L21.258 9.141C21.4612 8.88513 21.5822 8.57384 21.6052 8.24797C21.6282 7.9221 21.5522 7.59688 21.387 7.315L20.741 6.185C20.5812 5.90708 20.3419 5.68323 20.054 5.54213C19.7661 5.40103 19.4427 5.3491 19.125 5.393L17.219 5.683L14.861 4.327L14.166 2.534C14.0484 2.2308 13.8422 1.97002 13.5743 1.7856C13.3065 1.60118 12.9893 1.50167 12.664 1.5H11.339C11.0137 1.50098 10.6962 1.60023 10.4282 1.78473C10.1601 1.96924 9.95411 2.2304 9.83705 2.534ZM12.002 15.375C12.8972 15.375 13.7556 15.0194 14.3885 14.3865C15.0215 13.7535 15.377 12.8951 15.377 12C15.377 11.1049 15.0215 10.2465 14.3885 9.61351C13.7556 8.98058 12.8972 8.625 12.002 8.625C11.1069 8.625 10.2485 8.98058 9.61556 9.61351C8.98263 10.2465 8.62705 11.1049 8.62705 12C8.62705 12.8951 8.98263 13.7535 9.61556 14.3865C10.2485 15.0194 11.1069 15.375 12.002 15.375Z" fill="#B0B2B4"/>
</svg>
