<svg width="20" height="20" viewBox="0 0 20 20" fill="none" xmlns="http://www.w3.org/2000/svg">
<g opacity="0.4">
<path fill-rule="evenodd" clip-rule="evenodd" d="M6.34917 6.43501C5.99361 6.6139 5.65583 6.81696 5.33583 7.04418L3.62167 5.60834C3.37865 5.41459 3.0695 5.32352 2.76025 5.35459C2.451 5.38567 2.16615 5.53642 1.96653 5.77465C1.76691 6.01288 1.66835 6.31972 1.69189 6.62964C1.71542 6.93956 1.8592 7.22799 2.0925 7.43334L3.63083 8.72251C3.46745 8.94703 3.31666 9.18044 3.17917 9.42168C3.01917 9.62001 2.87667 9.80668 2.75083 9.97501L2.74667 9.98084C2.49167 10.3333 2.36083 10.7733 2.36083 11.2142C2.36083 11.6558 2.49167 12.0967 2.74667 12.4483L2.75083 12.455C3.33833 13.2442 4.31083 14.42 5.54 15.4042C6.7625 16.3825 8.2975 17.2167 10 17.2167C11.7025 17.2167 13.2375 16.3825 14.46 15.4042C15.6892 14.4208 16.6617 13.2442 17.2492 12.4542L17.2533 12.4483C17.5083 12.0967 17.6392 11.6567 17.6392 11.215C17.6392 10.7733 17.5083 10.3333 17.2533 9.98168L17.2492 9.97501C17.1242 9.80834 16.9825 9.62334 16.825 9.42751C16.6866 9.18392 16.5347 8.94827 16.37 8.72168L17.9083 7.43334C18.0325 7.33433 18.1356 7.21148 18.2116 7.07202C18.2876 6.93256 18.335 6.77931 18.3508 6.62128C18.3667 6.46326 18.3508 6.30365 18.3041 6.15186C18.2574 6.00007 18.1807 5.85916 18.0787 5.73742C17.9767 5.61568 17.8514 5.51558 17.7101 5.443C17.5689 5.37043 17.4145 5.32684 17.2561 5.31482C17.0978 5.30279 16.9386 5.32256 16.788 5.37297C16.6374 5.42338 16.4984 5.50341 16.3792 5.60834L14.665 7.04501C14.3421 6.81543 14.0022 6.61067 13.6483 6.43251C13.54 6.3614 13.4294 6.29196 13.3167 6.22418L14.0333 4.41918C14.1399 4.12789 14.1287 3.8065 14.002 3.52338C13.8753 3.24025 13.6431 3.01775 13.3548 2.90321C13.0665 2.78866 12.745 2.79112 12.4585 2.91004C12.172 3.02897 11.9432 3.25499 11.8208 3.54001L11.1108 5.32918C10.7456 5.25183 10.3733 5.21246 10 5.21168C9.62 5.21168 9.24833 5.25334 8.88667 5.32834L8.175 3.54001C8.12031 3.39058 8.03622 3.25363 7.92771 3.13724C7.81919 3.02086 7.68846 2.9274 7.54322 2.86239C7.39798 2.79738 7.24118 2.76214 7.08209 2.75875C6.923 2.75536 6.76485 2.78389 6.61697 2.84265C6.46909 2.90141 6.33449 2.98922 6.22112 3.10087C6.10775 3.21253 6.0179 3.34578 5.95689 3.49274C5.89588 3.6397 5.86494 3.7974 5.86591 3.95653C5.86687 4.11565 5.89972 4.27296 5.9625 4.41918L6.67917 6.22668C6.56695 6.2939 6.4575 6.36334 6.34917 6.43501ZM10 13.6692C10.6512 13.6692 11.2758 13.4105 11.7362 12.95C12.1967 12.4895 12.4554 11.865 12.4554 11.2138C12.4554 10.5625 12.1967 9.938 11.7362 9.47752C11.2758 9.01704 10.6512 8.75834 10 8.75834C9.34878 8.75834 8.72424 9.01704 8.26376 9.47752C7.80328 9.938 7.54458 10.5625 7.54458 11.2138C7.54458 11.865 7.80328 12.4895 8.26376 12.95C8.72424 13.4105 9.34878 13.6692 10 13.6692Z" fill="white"/>
</g>
</svg>
