<svg width="24" height="24" viewBox="0 0 24 24" fill="none" xmlns="http://www.w3.org/2000/svg">
<g opacity="0.8" clip-path="url(#clip0_15_178)">
<path d="M22.788 5.215C22.198 5.025 21.568 5.355 21.378 5.945L20.718 8.025C20.628 7.835 20.538 7.655 20.438 7.455C19.623 5.99227 18.4325 4.7735 16.9893 3.92445C15.5461 3.07539 13.9024 2.62682 12.228 2.625C8.82799 2.625 5.678 4.475 4.018 7.455C3.718 7.995 3.908 8.685 4.458 8.985C4.998 9.285 5.68799 9.095 5.988 8.545C6.60739 7.43331 7.51226 6.50707 8.6092 5.86191C9.70614 5.21676 10.9554 4.87606 12.228 4.875C14.818 4.875 17.208 6.285 18.458 8.545C18.568 8.745 18.658 8.935 18.748 9.125L16.568 8.425C16.2864 8.34239 15.9836 8.37331 15.7245 8.51115C15.4654 8.64899 15.2705 8.8828 15.1816 9.16251C15.0927 9.44222 15.1169 9.74562 15.2489 10.0077C15.3809 10.2699 15.6103 10.4699 15.888 10.565L20.608 12.065C20.718 12.105 20.838 12.115 20.948 12.115C21.428 12.115 21.868 11.815 22.018 11.335L23.518 6.615C23.708 6.025 23.378 5.395 22.788 5.205V5.215ZM19.988 15.015C19.448 14.715 18.758 14.905 18.458 15.455C17.8386 16.5667 16.9337 17.4929 15.8368 18.1381C14.7398 18.7832 13.4906 19.1239 12.218 19.125C9.628 19.125 7.238 17.715 5.988 15.455C5.928 15.345 5.878 15.235 5.828 15.135L8.09799 15.865C8.37962 15.9476 8.6824 15.9167 8.94151 15.7788C9.20063 15.641 9.39548 15.4072 9.48436 15.1275C9.57324 14.8478 9.54909 14.5444 9.41707 14.2823C9.28505 14.0201 9.05565 13.8201 8.778 13.725L4.058 12.225C3.468 12.035 2.838 12.365 2.648 12.955L1.148 17.655C0.957995 18.245 1.288 18.875 1.878 19.065C1.988 19.105 2.108 19.115 2.218 19.115C2.698 19.115 3.138 18.815 3.288 18.335L3.918 16.355C3.948 16.415 3.978 16.475 4.008 16.545C4.81971 18.0083 6.00811 19.2279 7.44996 20.0772C8.89181 20.9264 10.5346 21.3745 12.208 21.375C15.608 21.375 18.758 19.525 20.408 16.545C20.708 16.005 20.518 15.315 19.968 15.015H19.988Z" fill="white"/>
</g>
<defs>
<clipPath id="clip0_15_178">
<rect width="24" height="24" fill="white"/>
</clipPath>
</defs>
</svg>
