<svg width="24" height="24" viewBox="0 0 24 24" fill="none" xmlns="http://www.w3.org/2000/svg">
<path d="M22.508 10.27L21.058 9.06001V5.21001C21.058 4.71001 20.638 4.30001 20.138 4.30001H19.238C18.738 4.30001 18.328 4.71001 18.328 5.21001V6.79001L13.158 2.46001C12.832 2.18923 12.4218 2.04069 11.998 2.04001C11.588 2.04001 11.168 2.18001 10.838 2.46001L1.498 10.26C1.148 10.55 1.028 11.05 1.258 11.45C1.428 11.74 1.728 11.9 2.028 11.9C2.238 11.9 2.438 11.83 2.608 11.68L2.938 11.41V19.7C2.938 20.95 3.958 21.96 5.208 21.96H9.278C10.028 21.96 10.638 21.35 10.638 20.6V15.84C10.638 15.72 10.738 15.62 10.868 15.62H13.128C13.258 15.62 13.358 15.72 13.358 15.84V20.6C13.358 21.35 13.958 21.96 14.708 21.96H18.788C20.038 21.96 21.058 20.95 21.058 19.7V11.41L21.378 11.68C21.538 11.83 21.748 11.9 21.958 11.9C22.268 11.9 22.588 11.74 22.748 11.42C22.968 11.03 22.838 10.55 22.508 10.27ZM18.808 11.41L18.788 19.71H15.608V15.84C15.608 14.48 14.488 13.37 13.128 13.37H10.868C9.498 13.37 8.388 14.48 8.388 15.84V19.71H5.188V10.11L11.998 4.42001L16.888 8.51001L18.808 10.12V11.41Z" fill="#3E3F40"/>
</svg>
