<svg width="25" height="24" viewBox="0 0 25 24" fill="none" xmlns="http://www.w3.org/2000/svg">
<path d="M5.167 20.625C4.547 20.625 4.047 20.125 4.047 19.505V13.795C4.047 13.175 4.547 12.675 5.167 12.675C5.787 12.675 6.287 13.175 6.287 13.795V19.505C6.287 20.125 5.787 20.625 5.167 20.625ZM15.167 20.625C14.547 20.625 14.047 20.125 14.047 19.505V13.795C14.047 13.175 14.547 12.675 15.167 12.675C15.787 12.675 16.287 13.175 16.287 13.795V19.505C16.287 20.125 15.787 20.625 15.167 20.625ZM20.167 20.625C19.547 20.625 19.047 20.125 19.047 19.505V11.505C19.047 10.885 19.547 10.385 20.167 10.385C20.787 10.385 21.287 10.885 21.287 11.505V19.505C21.287 20.125 20.787 20.625 20.167 20.625ZM10.167 20.625C9.547 20.625 9.047 20.125 9.047 19.505V12.505C9.047 11.885 9.547 11.385 10.167 11.385C10.787 11.385 11.287 11.885 11.287 12.505V19.505C11.287 20.125 10.787 20.625 10.167 20.625ZM5.167 10.625C4.787 10.625 4.417 10.435 4.197 10.075C3.877 9.545 4.047 8.855 4.587 8.535L9.077 5.845C9.757 5.445 10.587 5.445 11.267 5.845L14.997 8.085L19.377 3.705C19.817 3.265 20.527 3.265 20.967 3.705C21.407 4.145 21.407 4.855 20.967 5.295L16.517 9.745C15.827 10.435 14.757 10.565 13.917 10.065L10.167 7.815L5.747 10.465C5.567 10.575 5.367 10.625 5.167 10.625Z" fill="#3E3F40"/>
</svg>
