<svg width="24" height="24" viewBox="0 0 24 24" fill="none" xmlns="http://www.w3.org/2000/svg">
<path d="M21.922 5.514C21.9086 5.40491 21.8589 5.3035 21.7809 5.22606C21.7029 5.14861 21.6012 5.09964 21.492 5.087C21.121 5.047 20.51 4.987 19.769 4.987C17.937 4.987 15.314 5.315 13.652 6.975C13.002 7.621 12.561 8.415 12.25 9.251C12.05 7.76 11.53 6.141 10.368 4.987C8.706 3.337 6.083 3 4.251 3C3.51 3 2.899 3.05 2.529 3.1C2.299 3.13 2.129 3.298 2.099 3.527C1.949 4.799 1.658 8.992 4.001 11.307C5.663 12.957 8.286 13.295 10.118 13.295C10.398 13.295 10.648 13.295 10.878 13.275V20.887C10.878 21.503 11.379 22 12 22C12.62 22 13.121 21.503 13.121 20.887V15.263C13.361 15.273 13.611 15.283 13.882 15.283C15.714 15.283 18.337 14.955 19.999 13.295C22.342 10.97 22.052 6.786 21.902 5.515L21.922 5.514ZM5.592 9.727C4.602 8.744 4.251 6.905 4.251 5.236C5.442 5.236 7.615 5.405 8.776 6.567C9.767 7.551 10.118 9.39 10.118 11.059C8.926 11.059 6.754 10.89 5.592 9.727ZM18.428 11.715C17.266 12.868 15.094 13.047 13.902 13.047C13.902 11.367 14.252 9.539 15.244 8.555C16.405 7.402 18.578 7.223 19.769 7.223C19.769 8.903 19.419 10.731 18.428 11.715Z" fill="#3E3F40"/>
</svg>
