<svg width="24" height="24" viewBox="0 0 24 24" fill="none" xmlns="http://www.w3.org/2000/svg">
<path d="M12 12.87C12.2307 12.87 12.452 12.7783 12.6152 12.6152C12.7783 12.452 12.87 12.2307 12.87 12C12.87 11.7693 12.7783 11.548 12.6152 11.3848C12.452 11.2217 12.2307 11.13 12 11.13C11.7693 11.13 11.548 11.2217 11.3848 11.3848C11.2217 11.548 11.13 11.7693 11.13 12C11.13 12.2307 11.2217 12.452 11.3848 12.6152C11.548 12.7783 11.7693 12.87 12 12.87Z" fill="#3E3F40"/>
<path d="M12 2C6.48 2 2 6.48 2 12C2 17.52 6.48 22 12 22C17.52 22 22 17.52 22 12C22 6.48 17.52 2 12 2ZM16.8 8.27L14.7 13.33C14.44 13.95 13.95 14.44 13.33 14.7L8.27 16.8C7.61 17.07 6.93 16.39 7.2 15.73L9.3 10.67C9.56 10.05 10.05 9.56 10.67 9.3L15.73 7.2C15.81 7.17 15.89 7.15 15.97 7.14C16.54 7.1 17.03 7.7 16.8 8.27Z" fill="#3E3F40"/>
</svg>
