<svg width="20" height="20" viewBox="0 0 20 20" fill="none" xmlns="http://www.w3.org/2000/svg">
<g opacity="0.64">
<path fill-rule="evenodd" clip-rule="evenodd" d="M7.67667 1.99501C4.435 2.93335 2.00583 5.79001 1.7 9.25585H5.51C5.73082 6.71328 6.46838 4.24255 7.6775 1.99501M5.50917 10.7442H1.69917C2.00583 14.21 4.43417 17.0658 7.67667 18.005C6.46755 15.7575 5.72999 13.2867 5.50917 10.7442ZM9.58583 18.3233C8.14216 16.0346 7.25721 13.4382 7.0025 10.7442H12.9958C12.7416 13.4381 11.8573 16.0344 10.4142 18.3233C10.1382 18.3371 9.86177 18.3371 9.58583 18.3233ZM12.3225 18.005C15.565 17.0658 17.9933 14.21 18.3 10.7442H14.4917C14.2706 13.2868 13.5327 15.7575 12.3233 18.005M14.4917 9.25585H18.3008C17.9942 5.79001 15.5658 2.93418 12.3233 1.99501C13.5327 4.24249 14.2706 6.71322 14.4917 9.25585ZM9.58667 1.67668C9.86261 1.66295 10.1391 1.66295 10.415 1.67668C11.8581 3.96562 12.7425 6.56194 12.9967 9.25585H7.00333C7.25779 6.56187 8.14329 3.96554 9.58667 1.67668Z" fill="white"/>
</g>
</svg>
