<svg width="20" height="20" viewBox="0 0 20 20" fill="none" xmlns="http://www.w3.org/2000/svg">
<g opacity="0.64">
<path fill-rule="evenodd" clip-rule="evenodd" d="M8.855 1.66666C10.1514 1.66666 11.4236 2.0172 12.537 2.68116C13.6505 3.34512 14.5637 4.29779 15.1799 5.43832C15.7962 6.57885 16.0925 7.86479 16.0377 9.16C15.9829 10.4552 15.5788 11.7115 14.8683 12.7958L17.9042 15.8317L18.0042 15.9442C18.2327 16.2255 18.3489 16.5815 18.3302 16.9435C18.3116 17.3054 18.1594 17.6476 17.9031 17.9039C17.6468 18.1602 17.3046 18.3124 16.9426 18.3311C16.5807 18.3497 16.2246 18.2336 15.9433 18.005L15.8317 17.9042L12.7958 14.8683C11.8592 15.4823 10.7921 15.869 9.67951 15.9975C8.56696 16.126 7.43977 15.9928 6.38781 15.6086C5.33586 15.2243 4.38822 14.5996 3.62047 13.7842C2.85271 12.9688 2.28608 11.9854 1.96573 10.9122C1.64538 9.83905 1.58019 8.70589 1.77534 7.60308C1.9705 6.50027 2.42061 5.4583 3.08978 4.56025C3.75895 3.66221 4.62869 2.93292 5.62963 2.43054C6.63058 1.92816 7.73505 1.66658 8.855 1.66666ZM17.3875 17.8875L17.4008 17.8825L17.4342 17.8625L17.3875 17.8875ZM17.59 17.7558C17.6173 17.7277 17.6465 17.7015 17.6775 17.6775L17.59 17.7558ZM17.965 17.1942L17.9925 17.0875C17.9925 17.0819 17.9931 17.0761 17.9942 17.07C17.9864 17.1117 17.9769 17.1533 17.9658 17.195M17.825 16.24C17.8461 16.2711 17.8656 16.3033 17.8833 16.3367L17.825 16.24ZM17.825 16.24C17.8044 16.2073 17.7816 16.1761 17.7567 16.1467L17.825 16.24ZM11.9483 14.99C11.8707 15.0293 11.7924 15.0671 11.7133 15.1033L11.9483 14.99ZM11.9483 14.99C12.0261 14.9511 12.1028 14.9108 12.1783 14.8692L11.9483 14.99ZM8.85667 4.59832C7.72729 4.59832 6.64416 5.04697 5.84557 5.84556C5.04698 6.64415 4.59833 7.72728 4.59833 8.85666C4.59833 9.98604 5.04698 11.0692 5.84557 11.8678C6.64416 12.6663 7.72729 13.115 8.85667 13.115C9.98605 13.115 11.0692 12.6663 11.8678 11.8678C12.6664 11.0692 13.115 9.98604 13.115 8.85666C13.115 7.72728 12.6664 6.64415 11.8678 5.84556C11.0692 5.04697 9.98605 4.59832 8.85667 4.59832ZM14.6 12.6225C14.645 12.5485 14.6914 12.4755 14.7392 12.4033L14.6 12.6225ZM4.28333 8.61999C4.29099 8.54236 4.29682 8.46456 4.30083 8.38666L4.28333 8.61999ZM15.5275 7.22499L15.5075 7.13749C15.4953 7.09471 15.4828 7.05166 15.47 7.00832C15.49 7.08054 15.5092 7.15277 15.5275 7.22499ZM8.855 4.27582C9.01333 4.27582 9.16944 4.2836 9.32333 4.29916L9.09 4.28166L8.855 4.27582Z" fill="white"/>
</g>
</svg>
