<svg width="20" height="20" viewBox="0 0 20 20" fill="none" xmlns="http://www.w3.org/2000/svg">
<g opacity="0.64">
<path fill-rule="evenodd" clip-rule="evenodd" d="M8.1975 2.11167L7.61834 3.60583L5.62667 4.73667L4.0375 4.495C3.77319 4.459 3.50414 4.50236 3.26451 4.61958C3.02489 4.73679 2.8255 4.92258 2.69167 5.15333L2.15334 6.09583C2.01518 6.33056 1.95148 6.60168 1.97068 6.87337C1.98987 7.14506 2.09105 7.40453 2.26084 7.6175L3.27084 8.86917V11.1308L2.28751 12.3825C2.11825 12.5957 2.01741 12.8551 1.99823 13.1267C1.97904 13.3983 2.04241 13.6693 2.18001 13.9042L2.71834 14.8458C2.85157 15.0774 3.05092 15.264 3.29085 15.3816C3.53077 15.4991 3.80033 15.5424 4.065 15.5058L5.65334 15.2642L7.61834 16.3942L8.1975 17.8883C8.29456 18.1417 8.46613 18.3596 8.68959 18.5135C8.91304 18.6673 9.17788 18.7498 9.44917 18.75H10.58C10.8512 18.7492 11.1157 18.6665 11.3391 18.5127C11.5624 18.359 11.7341 18.1413 11.8317 17.8883L12.4108 16.3942L14.3758 15.2633L15.965 15.505C16.2293 15.541 16.4984 15.4976 16.738 15.3804C16.9776 15.2632 17.177 15.0774 17.3108 14.8467L17.8492 13.9042C17.9867 13.6692 18.0499 13.3981 18.0305 13.1266C18.0112 12.855 17.9102 12.5956 17.7408 12.3825L16.7325 11.1308V8.86917L17.715 7.6175C17.8843 7.40428 17.9851 7.14486 18.0043 6.87331C18.0235 6.60175 17.9601 6.33073 17.8225 6.09583L17.2842 5.15417C17.1509 4.92257 16.9516 4.73603 16.7117 4.61844C16.4717 4.50085 16.2022 4.45758 15.9375 4.49417L14.3492 4.73583L12.3842 3.60583L11.805 2.11167C11.707 1.859 11.5352 1.64168 11.3119 1.488C11.0887 1.33432 10.8244 1.25139 10.5533 1.25H9.44917C9.17802 1.25082 8.91344 1.33352 8.69009 1.48728C8.46674 1.64103 8.29505 1.85867 8.1975 2.11167ZM10.0017 12.8125C10.7476 12.8125 11.463 12.5162 11.9904 11.9887C12.5179 11.4613 12.8142 10.7459 12.8142 10C12.8142 9.25408 12.5179 8.53871 11.9904 8.01126C11.463 7.48382 10.7476 7.1875 10.0017 7.1875C9.25575 7.1875 8.54038 7.48382 8.01293 8.01126C7.48549 8.53871 7.18917 9.25408 7.18917 10C7.18917 10.7459 7.48549 11.4613 8.01293 11.9887C8.54038 12.5162 9.25575 12.8125 10.0017 12.8125Z" fill="white"/>
</g>
</svg>
